<?xml version="1.0" encoding="UTF-8"?>
<svg xmlns="http://www.w3.org/2000/svg" width="32" height="32" viewBox="0 0 128 128">
<path fill="#00599C" d="M117.5 33.5l.3-.2c-.6-1.1-1.5-2.1-2.4-2.6L67.1 2.9c-.8-.5-1.9-.7-3.1-.7-1.2 0-2.3.3-3.1.7l-48 27.9c-1.7 1-2.9 3.5-2.9 5.4v55.7c0 1.1.2 2.3.9 3.4l-.2.1c.5.8 1.2 1.5 1.9 1.9l48.2 27.9c.8.5 1.9.7 3.1.7 1.2 0 2.3-.3 3.1-.7l48-27.9c1.7-1 2.9-3.5 2.9-5.4V36.1c.1-.8 0-1.7-.4-2.6zM64 88.5c9.1 0 17.1-5 21.3-12.4l12.9 7.6c-6.8 11.8-19.6 19.8-34.2 19.8-21.8 0-39.5-17.7-39.5-39.5S42.2 24.5 64 24.5c14.7 0 27.5 8.1 34.3 20l-13 7.5C81.1 44.5 73.1 39.5 64 39.5c-13.5 0-24.5 11-24.5 24.5s11 24.5 24.5 24.5z"/>
<path fill="#00599C" d="M78.2 64L82 65.7 86 67.3 89.9 69 93.7 70.7 97.5 72.3 101.3 74 105.1 75.7 108.9 77.3 112.7 79 116.5 80.7 120.3 82.3 124.1 84 127.9 85.7 131.7 87.3 135.5 89V91.3L131.7 89.7 127.9 88 124.1 86.3 120.3 84.7 116.5 83 112.7 81.3 108.9 79.7 105.1 78 101.3 76.3 97.5 74.7 93.7 73 89.9 71.3 86 69.7 82 68 78.2 66.3z"/>
<path fill="#00599C" d="M78.2 48.7l3.8 1.6 3.8 1.6 3.8 1.6 3.8 1.6 3.8 1.6 3.8 1.6 3.8 1.6 3.8 1.6 3.8 1.6 3.8 1.6 3.8 1.6 3.8 1.6 3.8 1.6 3.8 1.6 3.8 1.6V39L131.7 37.4l-3.8-1.6-3.8-1.6-3.8-1.6-3.8-1.6-3.8-1.6-3.8-1.6-3.8-1.6-3.8-1.6-3.8-1.6-3.8-1.6-3.8-1.6-3.8-1.6-3.8-1.6-3.8-1.6-3.8-1.6z"/>
</svg>
